<svg xmlns="http://www.w3.org/2000/svg" xmlns:xlink="http://www.w3.org/1999/xlink" width="500" zoomAndPan="magnify" viewBox="0 0 375 374.999991" height="500" preserveAspectRatio="xMidYMid meet" version="1.0"><defs><g/><clipPath id="139543cec6"><path d="M 145 115.492188 L 230 115.492188 L 230 161 L 145 161 Z M 145 115.492188 " clip-rule="nonzero"/></clipPath><clipPath id="8b3c5e8626"><path d="M 181 129 L 238.351562 129 L 238.351562 215.242188 L 181 215.242188 Z M 181 129 " clip-rule="nonzero"/></clipPath><clipPath id="5824aa68c3"><path d="M 136.351562 129 L 186 129 L 186 215 L 136.351562 215 Z M 136.351562 129 " clip-rule="nonzero"/></clipPath></defs><path fill="#393536" d="M 178.195312 155.363281 C 178.195312 160.429688 182.292969 164.535156 187.351562 164.535156 C 192.40625 164.535156 196.507812 160.429688 196.507812 155.363281 C 196.507812 150.300781 192.40625 146.191406 187.351562 146.191406 C 182.292969 146.191406 178.195312 150.300781 178.195312 155.363281 " fill-opacity="1" fill-rule="nonzero"/><g clip-path="url(#139543cec6)"><path fill="#918f8f" d="M 187.351562 120.9375 C 164.921875 120.9375 146.582031 138.449219 145.207031 160.570312 C 145.152344 159.6875 145.121094 158.792969 145.121094 157.894531 C 145.121094 134.53125 164.027344 115.59375 187.351562 115.59375 C 210.671875 115.59375 229.582031 134.53125 229.582031 157.894531 C 229.582031 158.792969 229.550781 159.6875 229.496094 160.570312 C 228.121094 138.449219 209.78125 120.9375 187.351562 120.9375 " fill-opacity="1" fill-rule="nonzero"/></g><path fill="#393536" d="M 166.90625 143.917969 L 187.351562 133.386719 L 207.796875 143.917969 L 197.308594 145.296875 L 197.308594 154.1875 L 177.394531 154.1875 L 177.394531 145.296875 L 174.90625 144.972656 L 174.90625 150.527344 C 174.90625 150.949219 174.5625 151.289062 174.144531 151.289062 C 173.722656 151.289062 173.382812 150.949219 173.382812 150.527344 L 173.382812 144.769531 L 166.90625 143.917969 " fill-opacity="1" fill-rule="nonzero"/><g clip-path="url(#8b3c5e8626)"><path fill="#393536" d="M 181.21875 203.5 C 181.230469 202.25 181.28125 201.375 181.3125 201.015625 C 182.355469 189.679688 186.519531 178.820312 193.335938 169.613281 C 198.1875 163.0625 212.3125 151.070312 217.28125 136.90625 C 216.320312 147.972656 209.898438 158.625 202.207031 169.613281 C 194.375 180.808594 203.132812 201.15625 203.132812 201.15625 C 221.128906 194.675781 234 177.425781 234 157.167969 C 234 146.851562 230.65625 137.316406 225.003906 129.585938 C 233.292969 138.667969 238.351562 150.761719 238.351562 164.039062 C 238.351562 188.019531 221.855469 208.140625 199.609375 213.640625 C 195.683594 214.609375 191.578125 215.125 187.351562 215.125 C 185.589844 215.125 183.851562 215.035156 182.140625 214.863281 C 181.335938 210.289062 181.195312 206.089844 181.21875 203.5 " fill-opacity="1" fill-rule="nonzero"/></g><g clip-path="url(#5824aa68c3)"><path fill="#f68712" d="M 177.53125 203.460938 C 177.542969 202.132812 177.597656 201.144531 177.644531 200.664062 C 178.453125 191.851562 181.046875 183.300781 185.238281 175.511719 C 184.0625 173.480469 182.773438 171.511719 181.367188 169.613281 C 176.515625 163.066406 162.386719 151.070312 157.421875 136.90625 C 158.378906 147.972656 164.804688 158.625 172.496094 169.613281 C 180.328125 180.808594 171.570312 201.15625 171.570312 201.15625 C 153.570312 194.675781 140.703125 177.429688 140.703125 157.171875 C 140.703125 146.851562 144.042969 137.316406 149.695312 129.585938 C 141.410156 138.667969 136.351562 150.761719 136.351562 164.039062 C 136.351562 188.019531 152.84375 208.140625 175.089844 213.640625 C 176.152344 213.902344 177.226562 214.128906 178.3125 214.324219 C 177.59375 209.679688 177.511719 205.582031 177.53125 203.460938 " fill-opacity="1" fill-rule="nonzero"/></g><g fill="#d87103" fill-opacity="1"><g transform="translate(129.749278, 238.9991)"><g><path d="M 13.46875 -13.296875 L 8.0625 -4.671875 L 9.15625 -7.21875 L 9.15625 -4.671875 C 9.15625 -4.359375 9.160156 -4.035156 9.171875 -3.703125 C 9.179688 -3.378906 9.1875 -3.078125 9.1875 -2.796875 C 9.195312 -2.515625 9.210938 -2.269531 9.234375 -2.0625 C 9.265625 -1.863281 9.289062 -1.738281 9.3125 -1.6875 L 11.09375 -1.296875 L 11.015625 0 L 3.90625 0 L 3.828125 -1.296875 L 5.609375 -1.6875 C 5.628906 -1.738281 5.644531 -1.863281 5.65625 -2.0625 C 5.675781 -2.269531 5.691406 -2.515625 5.703125 -2.796875 C 5.722656 -3.078125 5.734375 -3.378906 5.734375 -3.703125 C 5.734375 -4.035156 5.734375 -4.359375 5.734375 -4.671875 L 5.734375 -7.21875 L 6.578125 -4.671875 L 1.484375 -13.296875 L 0.171875 -13.703125 L 0.25 -14.96875 L 6.984375 -14.96875 L 7.0625 -13.703125 L 5.453125 -13.296875 L 8.703125 -7.703125 L 8.09375 -7.703125 L 11.328125 -13.296875 L 9.546875 -13.703125 L 9.625 -14.96875 L 14.703125 -14.96875 L 14.765625 -13.703125 Z M 13.46875 -13.296875 "/></g></g></g><g fill="#d87103" fill-opacity="1"><g transform="translate(149.6093, 238.9991)"><g><path d="M -0.03125 0 L -0.109375 -1.28125 L 1.21875 -1.6875 L 6.40625 -14.234375 L 8.546875 -15.4375 L 14.421875 -1.6875 L 15.734375 -1.28125 L 15.671875 0 L 8.828125 0 L 8.75 -1.28125 L 10.390625 -1.6875 L 9 -4.96875 L 8.71875 -5.84375 L 6.171875 -11.859375 L 6.90625 -11.65625 L 4.796875 -5.921875 L 4.5625 -5.15625 L 3.34375 -1.6875 L 4.96875 -1.28125 L 4.90625 0 Z M 3.953125 -4.34375 L 3.953125 -6.078125 C 4.296875 -6.054688 4.675781 -6.03125 5.09375 -6 C 5.519531 -5.976562 6.09375 -5.96875 6.8125 -5.96875 C 7.488281 -5.96875 8.050781 -5.976562 8.5 -6 C 8.957031 -6.03125 9.347656 -6.054688 9.671875 -6.078125 L 9.671875 -4.359375 C 9.347656 -4.359375 8.957031 -4.363281 8.5 -4.375 C 8.039062 -4.394531 7.476562 -4.40625 6.8125 -4.40625 C 6.113281 -4.40625 5.539062 -4.394531 5.09375 -4.375 C 4.65625 -4.363281 4.273438 -4.351562 3.953125 -4.34375 Z M 3.953125 -4.34375 "/></g></g></g><g fill="#d87103" fill-opacity="1"><g transform="translate(170.056027, 238.9991)"><g><path d="M 6 0.234375 C 5.269531 0.234375 4.472656 0.132812 3.609375 -0.0625 C 2.753906 -0.269531 2.019531 -0.546875 1.40625 -0.890625 L 1.28125 -4.671875 L 2.90625 -4.765625 L 3.78125 -2.140625 C 4.132812 -1.921875 4.539062 -1.742188 5 -1.609375 C 5.457031 -1.484375 5.898438 -1.421875 6.328125 -1.421875 C 7.085938 -1.421875 7.664062 -1.582031 8.0625 -1.90625 C 8.46875 -2.226562 8.671875 -2.664062 8.671875 -3.21875 C 8.671875 -3.8125 8.492188 -4.285156 8.140625 -4.640625 C 7.796875 -4.992188 7.34375 -5.296875 6.78125 -5.546875 C 6.21875 -5.804688 5.625 -6.0625 5 -6.3125 C 4.375 -6.5625 3.78125 -6.859375 3.21875 -7.203125 C 2.65625 -7.554688 2.195312 -8.003906 1.84375 -8.546875 C 1.5 -9.085938 1.328125 -9.796875 1.328125 -10.671875 C 1.328125 -11.585938 1.585938 -12.390625 2.109375 -13.078125 C 2.628906 -13.765625 3.359375 -14.296875 4.296875 -14.671875 C 5.242188 -15.054688 6.335938 -15.25 7.578125 -15.25 C 7.972656 -15.25 8.398438 -15.222656 8.859375 -15.171875 C 9.316406 -15.128906 9.753906 -15.050781 10.171875 -14.9375 C 10.597656 -14.820312 10.96875 -14.695312 11.28125 -14.5625 L 11.578125 -10.84375 L 9.953125 -10.734375 L 9.140625 -13.234375 C 8.609375 -13.515625 8.003906 -13.65625 7.328125 -13.65625 C 6.628906 -13.65625 6.050781 -13.476562 5.59375 -13.125 C 5.144531 -12.78125 4.921875 -12.289062 4.921875 -11.65625 C 4.921875 -11.09375 5.097656 -10.628906 5.453125 -10.265625 C 5.816406 -9.898438 6.28125 -9.582031 6.84375 -9.3125 C 7.414062 -9.050781 8.019531 -8.796875 8.65625 -8.546875 C 9.300781 -8.296875 9.898438 -7.992188 10.453125 -7.640625 C 11.015625 -7.296875 11.472656 -6.859375 11.828125 -6.328125 C 12.191406 -5.796875 12.375 -5.125 12.375 -4.3125 C 12.375 -3.445312 12.109375 -2.664062 11.578125 -1.96875 C 11.054688 -1.28125 10.3125 -0.738281 9.34375 -0.34375 C 8.382812 0.0390625 7.269531 0.234375 6 0.234375 Z M 6 0.234375 "/></g></g></g><g fill="#d87103" fill-opacity="1"><g transform="translate(188.0539, 238.9991)"><g><path d="M 10.109375 0 L 10.03125 -1.28125 L 11.609375 -1.6875 C 11.640625 -1.789062 11.664062 -2.023438 11.6875 -2.390625 C 11.71875 -2.753906 11.738281 -3.21875 11.75 -3.78125 C 11.769531 -4.34375 11.78125 -4.953125 11.78125 -5.609375 L 11.78125 -9.34375 C 11.78125 -10.039062 11.769531 -10.671875 11.75 -11.234375 C 11.738281 -11.804688 11.71875 -12.273438 11.6875 -12.640625 C 11.664062 -13.003906 11.640625 -13.222656 11.609375 -13.296875 L 10.03125 -13.703125 L 10.109375 -14.96875 L 16.96875 -14.96875 L 17.046875 -13.703125 L 15.4375 -13.296875 C 15.40625 -13.222656 15.375 -12.984375 15.34375 -12.578125 C 15.320312 -12.179688 15.296875 -11.691406 15.265625 -11.109375 C 15.242188 -10.535156 15.234375 -9.945312 15.234375 -9.34375 L 15.234375 -5.609375 C 15.234375 -5.035156 15.242188 -4.457031 15.265625 -3.875 C 15.296875 -3.300781 15.320312 -2.816406 15.34375 -2.421875 C 15.375 -2.035156 15.40625 -1.789062 15.4375 -1.6875 L 17.046875 -1.28125 L 16.96875 0 Z M 0.96875 0 L 0.890625 -1.28125 L 2.5 -1.6875 C 2.53125 -1.769531 2.554688 -1.988281 2.578125 -2.34375 C 2.609375 -2.707031 2.628906 -3.171875 2.640625 -3.734375 C 2.660156 -4.304688 2.671875 -4.929688 2.671875 -5.609375 L 2.671875 -9.34375 C 2.671875 -10.050781 2.660156 -10.691406 2.640625 -11.265625 C 2.628906 -11.835938 2.609375 -12.304688 2.578125 -12.671875 C 2.554688 -13.035156 2.53125 -13.242188 2.5 -13.296875 L 0.890625 -13.703125 L 0.96875 -14.96875 L 7.78125 -14.96875 L 7.859375 -13.703125 L 6.28125 -13.296875 C 6.238281 -13.222656 6.207031 -13.003906 6.1875 -12.640625 C 6.164062 -12.273438 6.148438 -11.804688 6.140625 -11.234375 C 6.128906 -10.671875 6.125 -10.039062 6.125 -9.34375 L 6.125 -5.609375 C 6.125 -4.953125 6.128906 -4.34375 6.140625 -3.78125 C 6.148438 -3.21875 6.164062 -2.753906 6.1875 -2.390625 C 6.207031 -2.023438 6.238281 -1.789062 6.28125 -1.6875 L 7.859375 -1.28125 L 7.78125 0 Z M 5.5625 -6.6875 L 5.5625 -8.625 C 5.96875 -8.570312 6.429688 -8.535156 6.953125 -8.515625 C 7.484375 -8.503906 8.148438 -8.5 8.953125 -8.5 C 9.753906 -8.5 10.414062 -8.503906 10.9375 -8.515625 C 11.46875 -8.535156 11.9375 -8.570312 12.34375 -8.625 L 12.34375 -6.6875 C 11.988281 -6.695312 11.546875 -6.710938 11.015625 -6.734375 C 10.492188 -6.765625 9.804688 -6.78125 8.953125 -6.78125 C 8.097656 -6.78125 7.40625 -6.765625 6.875 -6.734375 C 6.351562 -6.710938 5.914062 -6.695312 5.5625 -6.6875 Z M 5.5625 -6.6875 "/></g></g></g><g fill="#d87103" fill-opacity="1"><g transform="translate(210.898463, 238.9991)"><g><path d="M -0.03125 0 L -0.109375 -1.28125 L 1.21875 -1.6875 L 6.40625 -14.234375 L 8.546875 -15.4375 L 14.421875 -1.6875 L 15.734375 -1.28125 L 15.671875 0 L 8.828125 0 L 8.75 -1.28125 L 10.390625 -1.6875 L 9 -4.96875 L 8.71875 -5.84375 L 6.171875 -11.859375 L 6.90625 -11.65625 L 4.796875 -5.921875 L 4.5625 -5.15625 L 3.34375 -1.6875 L 4.96875 -1.28125 L 4.90625 0 Z M 3.953125 -4.34375 L 3.953125 -6.078125 C 4.296875 -6.054688 4.675781 -6.03125 5.09375 -6 C 5.519531 -5.976562 6.09375 -5.96875 6.8125 -5.96875 C 7.488281 -5.96875 8.050781 -5.976562 8.5 -6 C 8.957031 -6.03125 9.347656 -6.054688 9.671875 -6.078125 L 9.671875 -4.359375 C 9.347656 -4.359375 8.957031 -4.363281 8.5 -4.375 C 8.039062 -4.394531 7.476562 -4.40625 6.8125 -4.40625 C 6.113281 -4.40625 5.539062 -4.394531 5.09375 -4.375 C 4.65625 -4.363281 4.273438 -4.351562 3.953125 -4.34375 Z M 3.953125 -4.34375 "/></g></g></g><g fill="#d87103" fill-opacity="1"><g transform="translate(231.345191, 238.9991)"><g><path d="M 1.21875 -14.96875 L 6.578125 -14.96875 L 11.921875 -3.671875 L 11.171875 -3.671875 L 15.96875 -14.96875 L 21.359375 -14.96875 L 21.4375 -13.703125 L 19.796875 -13.3125 C 19.773438 -13.070312 19.773438 -12.6875 19.796875 -12.15625 C 19.816406 -11.625 19.832031 -10.941406 19.84375 -10.109375 L 20 -5.640625 C 20.03125 -4.921875 20.0625 -4.28125 20.09375 -3.71875 C 20.132812 -3.164062 20.164062 -2.707031 20.1875 -2.34375 C 20.21875 -1.988281 20.238281 -1.769531 20.25 -1.6875 L 21.890625 -1.28125 L 21.8125 0 L 14.875 0 L 14.796875 -1.28125 L 16.4375 -1.6875 C 16.445312 -1.769531 16.457031 -1.972656 16.46875 -2.296875 C 16.476562 -2.617188 16.484375 -3.0625 16.484375 -3.625 C 16.484375 -4.1875 16.472656 -4.847656 16.453125 -5.609375 L 16.375 -14.234375 L 17.546875 -14.234375 L 11.484375 0.078125 L 9.875 0.078125 L 3.0625 -14.234375 L 4.671875 -14.234375 L 4.6875 -5.453125 C 4.6875 -4.148438 4.695312 -3.222656 4.71875 -2.671875 C 4.738281 -2.117188 4.753906 -1.789062 4.765625 -1.6875 L 6.53125 -1.28125 L 6.453125 0 L 0.875 0 L 0.796875 -1.28125 L 2.578125 -1.6875 C 2.597656 -1.800781 2.609375 -2.035156 2.609375 -2.390625 C 2.617188 -2.753906 2.628906 -3.191406 2.640625 -3.703125 C 2.660156 -4.210938 2.671875 -4.738281 2.671875 -5.28125 L 2.75 -10.046875 C 2.769531 -10.953125 2.773438 -11.660156 2.765625 -12.171875 C 2.753906 -12.691406 2.75 -13.066406 2.75 -13.296875 L 1.140625 -13.703125 Z M 1.21875 -14.96875 "/></g></g></g><g fill="#393536" fill-opacity="1"><g transform="translate(137.545146, 256.199969)"><g><path d="M 6.640625 -7.03125 L 2.484375 -7.03125 L 2.484375 -4.640625 L 6.25 -4.640625 L 6.25 -3.40625 L 2.484375 -3.40625 L 2.484375 0 L 1.09375 0 L 1.09375 -8.296875 L 6.65625 -8.296875 Z M 6.640625 -7.03125 "/></g></g></g><g fill="#393536" fill-opacity="1"><g transform="translate(146.328648, 256.199969)"><g><path d="M 1.671875 -7.125 C 2.515625 -7.925781 3.554688 -8.328125 4.796875 -8.328125 C 6.035156 -8.328125 7.078125 -7.925781 7.921875 -7.125 C 8.765625 -6.320312 9.1875 -5.328125 9.1875 -4.140625 C 9.1875 -2.960938 8.765625 -1.96875 7.921875 -1.15625 C 7.078125 -0.34375 6.035156 0.0625 4.796875 0.0625 C 3.554688 0.0625 2.515625 -0.34375 1.671875 -1.15625 C 0.828125 -1.96875 0.40625 -2.960938 0.40625 -4.140625 C 0.40625 -5.328125 0.828125 -6.320312 1.671875 -7.125 Z M 4.8125 -7.078125 C 3.988281 -7.078125 3.285156 -6.789062 2.703125 -6.21875 C 2.117188 -5.65625 1.828125 -4.960938 1.828125 -4.140625 C 1.828125 -3.316406 2.117188 -2.617188 2.703125 -2.046875 C 3.296875 -1.484375 4 -1.203125 4.8125 -1.203125 C 5.625 -1.203125 6.316406 -1.484375 6.890625 -2.046875 C 7.460938 -2.617188 7.75 -3.316406 7.75 -4.140625 C 7.75 -4.960938 7.460938 -5.65625 6.890625 -6.21875 C 6.316406 -6.789062 5.625 -7.078125 4.8125 -7.078125 Z M 4.8125 -7.078125 "/></g></g></g><g fill="#393536" fill-opacity="1"><g transform="translate(157.893579, 256.199969)"><g><path d="M 8.140625 -8.296875 L 8.140625 -3.4375 C 8.140625 -2.351562 7.816406 -1.5 7.171875 -0.875 C 6.535156 -0.25 5.65625 0.0625 4.53125 0.0625 C 3.414062 0.0625 2.535156 -0.25 1.890625 -0.875 C 1.242188 -1.5 0.921875 -2.351562 0.921875 -3.4375 L 0.921875 -8.296875 L 2.328125 -8.296875 L 2.328125 -3.4375 C 2.328125 -2.738281 2.523438 -2.191406 2.921875 -1.796875 C 3.316406 -1.398438 3.859375 -1.203125 4.546875 -1.203125 C 5.222656 -1.203125 5.753906 -1.394531 6.140625 -1.78125 C 6.535156 -2.175781 6.734375 -2.726562 6.734375 -3.4375 L 6.734375 -8.296875 Z M 8.140625 -8.296875 "/></g></g></g><g fill="#393536" fill-opacity="1"><g transform="translate(168.914057, 256.199969)"><g><path d="M 8.28125 0 L 6.90625 0 L 2.484375 -5.953125 L 2.484375 0 L 1.09375 0 L 1.09375 -8.296875 L 2.46875 -8.296875 L 6.90625 -2.328125 L 6.90625 -8.296875 L 8.28125 -8.296875 Z M 8.28125 0 "/></g></g></g><g fill="#393536" fill-opacity="1"><g transform="translate(180.265946, 256.199969)"><g><path d="M 1.09375 -8.296875 L 4.484375 -8.296875 C 5.722656 -8.296875 6.75 -7.90625 7.5625 -7.125 C 8.375 -6.34375 8.78125 -5.347656 8.78125 -4.140625 C 8.78125 -2.941406 8.375 -1.953125 7.5625 -1.171875 C 6.75 -0.390625 5.710938 0 4.453125 0 L 1.09375 0 Z M 2.484375 -7.03125 L 2.484375 -1.25 L 4.53125 -1.25 C 5.34375 -1.25 6.015625 -1.519531 6.546875 -2.0625 C 7.085938 -2.601562 7.359375 -3.289062 7.359375 -4.125 C 7.359375 -4.96875 7.082031 -5.660156 6.53125 -6.203125 C 5.976562 -6.753906 5.289062 -7.03125 4.46875 -7.03125 Z M 2.484375 -7.03125 "/></g></g></g><g fill="#393536" fill-opacity="1"><g transform="translate(191.416625, 256.199969)"><g><path d="M 6.4375 -1.875 L 2.265625 -1.875 L 1.46875 0 L 0.015625 0 L 3.671875 -8.296875 L 5.109375 -8.296875 L 8.734375 0 L 7.234375 0 Z M 5.90625 -3.109375 L 4.34375 -6.796875 L 2.78125 -3.109375 Z M 5.90625 -3.109375 "/></g></g></g><g fill="#393536" fill-opacity="1"><g transform="translate(202.12937, 256.199969)"><g><path d="M 6.75 -7.03125 L 4.125 -7.03125 L 4.125 0 L 2.71875 0 L 2.71875 -7.03125 L 0.109375 -7.03125 L 0.109375 -8.296875 L 6.75 -8.296875 Z M 6.75 -7.03125 "/></g></g></g><g fill="#393536" fill-opacity="1"><g transform="translate(210.960214, 256.199969)"><g><path d="M 2.484375 0 L 1.09375 0 L 1.09375 -8.296875 L 2.484375 -8.296875 Z M 2.484375 0 "/></g></g></g><g fill="#393536" fill-opacity="1"><g transform="translate(216.512521, 256.199969)"><g><path d="M 1.671875 -7.125 C 2.515625 -7.925781 3.554688 -8.328125 4.796875 -8.328125 C 6.035156 -8.328125 7.078125 -7.925781 7.921875 -7.125 C 8.765625 -6.320312 9.1875 -5.328125 9.1875 -4.140625 C 9.1875 -2.960938 8.765625 -1.96875 7.921875 -1.15625 C 7.078125 -0.34375 6.035156 0.0625 4.796875 0.0625 C 3.554688 0.0625 2.515625 -0.34375 1.671875 -1.15625 C 0.828125 -1.96875 0.40625 -2.960938 0.40625 -4.140625 C 0.40625 -5.328125 0.828125 -6.320312 1.671875 -7.125 Z M 4.8125 -7.078125 C 3.988281 -7.078125 3.285156 -6.789062 2.703125 -6.21875 C 2.117188 -5.65625 1.828125 -4.960938 1.828125 -4.140625 C 1.828125 -3.316406 2.117188 -2.617188 2.703125 -2.046875 C 3.296875 -1.484375 4 -1.203125 4.8125 -1.203125 C 5.625 -1.203125 6.316406 -1.484375 6.890625 -2.046875 C 7.460938 -2.617188 7.75 -3.316406 7.75 -4.140625 C 7.75 -4.960938 7.460938 -5.65625 6.890625 -6.21875 C 6.316406 -6.789062 5.625 -7.078125 4.8125 -7.078125 Z M 4.8125 -7.078125 "/></g></g></g><g fill="#393536" fill-opacity="1"><g transform="translate(228.07745, 256.199969)"><g><path d="M 8.28125 0 L 6.90625 0 L 2.484375 -5.953125 L 2.484375 0 L 1.09375 0 L 1.09375 -8.296875 L 2.46875 -8.296875 L 6.90625 -2.328125 L 6.90625 -8.296875 L 8.28125 -8.296875 Z M 8.28125 0 "/></g></g></g></svg>